<svg width="100" height="100" viewBox="0 0 100 100" fill="none" xmlns="http://www.w3.org/2000/svg">
<path d="M25 6.25V12.5H15.625C10.4492 12.5 6.25 16.6992 6.25 21.875V31.25H93.75V21.875C93.75 16.6992 89.5508 12.5 84.375 12.5H75V6.25C75 2.79297 72.207 0 68.75 0C65.293 0 62.5 2.79297 62.5 6.25V12.5H37.5V6.25C37.5 2.79297 34.707 0 31.25 0C27.793 0 25 2.79297 25 6.25ZM93.75 37.5H6.25V90.625C6.25 95.8008 10.4492 100 15.625 100H84.375C89.5508 100 93.75 95.8008 93.75 90.625V37.5ZM31.25 56.25C31.25 57.9076 30.5915 59.4973 29.4194 60.6694C28.2473 61.8415 26.6576 62.5 25 62.5C23.3424 62.5 21.7527 61.8415 20.5806 60.6694C19.4085 59.4973 18.75 57.9076 18.75 56.25C18.75 54.5924 19.4085 53.0027 20.5806 51.8306C21.7527 50.6585 23.3424 50 25 50C26.6576 50 28.2473 50.6585 29.4194 51.8306C30.5915 53.0027 31.25 54.5924 31.25 56.25ZM75 87.5C73.3424 87.5 71.7527 86.8415 70.5806 85.6694C69.4085 84.4973 68.75 82.9076 68.75 81.25C68.75 79.5924 69.4085 78.0027 70.5806 76.8306C71.7527 75.6585 73.3424 75 75 75C76.6576 75 78.2473 75.6585 79.4194 76.8306C80.5915 78.0027 81.25 79.5924 81.25 81.25C81.25 82.9076 80.5915 84.4973 79.4194 85.6694C78.2473 86.8415 76.6576 87.5 75 87.5ZM43.75 56.25C43.75 53.6523 45.8398 51.5625 48.4375 51.5625H76.5625C79.1602 51.5625 81.25 53.6523 81.25 56.25C81.25 58.8477 79.1602 60.9375 76.5625 60.9375H48.4375C45.8398 60.9375 43.75 58.8477 43.75 56.25ZM51.5625 76.5625C54.1602 76.5625 56.25 78.6523 56.25 81.25C56.25 83.8477 54.1602 85.9375 51.5625 85.9375H23.4375C20.8398 85.9375 18.75 83.8477 18.75 81.25C18.75 78.6523 20.8398 76.5625 23.4375 76.5625H51.5625Z" fill="#6E848F"/>
</svg>
