<svg width="270" height="28" viewBox="0 0 270 28" fill="none" xmlns="http://www.w3.org/2000/svg">
<g clip-path="url(#clip0_9726_1141)">
<path d="M13.7362 0C17.5005 0 20.9447 1.56175 23.4275 4.00475L20.2638 7.2485C18.5818 5.5665 16.259 4.52525 13.736 4.52525C8.65 4.52525 4.56525 8.65 4.56525 13.736C4.56525 18.782 8.65 22.9468 13.736 22.9468C16.259 22.9468 18.5818 21.8655 20.2638 20.2235L23.4275 23.4272C20.9445 25.9502 17.5005 27.472 13.736 27.472C6.12725 27.4723 0 21.305 0 13.7362C0 6.12725 6.12725 0 13.7362 0ZM13.7362 10.4522C15.5382 10.4522 16.98 11.934 16.98 13.736C16.98 15.538 15.5382 16.9797 13.7362 16.9797C11.894 16.9797 10.4525 15.538 10.4525 13.736C10.4525 11.934 11.8942 10.4522 13.7362 10.4522ZM25.6383 10.6525H31.6453C35.3295 10.6525 35.3295 5.046 31.6453 5.046H25.6383V0.72075H31.5252C41.0165 0.72075 41.0165 15.0175 31.5252 15.0175H29.8032V26.7113H25.6383V10.6525Z" fill="#6E848F"/>
<path d="M47.3943 13.0717C44.8498 13.0717 42.9258 11.334 42.9258 8.52249C42.9258 5.71099 44.8498 3.97949 47.3943 3.97949C49.2563 3.97949 50.7828 4.92274 51.447 6.50549L50.063 7.03299C49.6038 5.97174 48.5983 5.36349 47.3943 5.36349C45.7185 5.36349 44.409 6.53024 44.409 8.52249C44.409 10.527 45.7185 11.6877 47.3943 11.6877C48.5983 11.6877 49.6038 11.0857 50.063 10.0245L51.447 10.552C50.783 12.1345 49.2563 13.0717 47.3943 13.0717ZM54.643 11.6257H57.5663V12.9537H53.1598V4.10349H54.643V11.6257ZM64.0828 5.42549H60.6445V7.87699H63.6855V9.18649H60.6445V11.6255H64.0828V12.9535H59.1425V4.10324H64.0828V5.42549ZM71.9153 12.9537L71.214 10.9862H67.3475L66.6523 12.9537H65.1193L68.3775 4.10349H70.1835L73.4418 12.9537H71.9153ZM67.8003 9.71424H70.7668L69.2835 5.53124L67.8003 9.71424ZM79.7288 12.9537L77.4325 9.00649H76.4768V12.9537H74.9935V4.10349H78.0655C79.9833 4.10349 80.8273 5.25174 80.8273 6.67299C80.8273 7.90799 80.095 8.73974 78.922 8.95074L81.4728 12.9537H79.7288ZM76.4768 5.35749V7.90824H77.8483C78.9343 7.90824 79.3998 7.39924 79.3998 6.64224C79.3998 5.89124 78.9343 5.35749 77.8483 5.35749H76.4768ZM86.624 4.10349C88.2873 4.10349 89.3485 5.35099 89.3485 6.89024C89.3485 8.45424 88.2873 9.65199 86.624 9.65199H84.5883V12.9537H83.105V4.10349H86.624ZM86.388 8.38599C87.381 8.38599 87.9023 7.77774 87.9023 6.87174C87.9023 5.99674 87.381 5.35749 86.388 5.35749H84.5883V8.38624L86.388 8.38599ZM94.959 13.0717C92.4145 13.0717 90.4905 11.3277 90.4905 8.52249C90.4905 5.71724 92.4145 3.97949 94.959 3.97949C97.5035 3.97949 99.4213 5.72349 99.4213 8.52249C99.4213 11.3215 97.4973 13.0717 94.959 13.0717ZM94.959 11.694C96.6348 11.694 97.9443 10.5335 97.9443 8.52274C97.9443 6.53049 96.6348 5.36374 94.959 5.36374C93.2833 5.36374 91.9738 6.53049 91.9738 8.52274C91.9738 10.5335 93.2833 11.694 94.959 11.694ZM101.345 12.9537V4.10349H102.829V12.9537H101.345ZM111.356 4.10349H112.839V12.9537H111.176L106.832 6.20124V12.9537H105.361V4.10349H107.006L111.356 10.8127V4.10349ZM120.256 4.10349V5.42549H118.071V12.9537H116.594V5.42524H114.403V4.10324H120.256L120.256 4.10349ZM126.63 12.9537L124.209 4.10349H125.754L127.666 11.098L129.757 4.10349H131.036L133.121 11.098L135.045 4.10349H136.584L134.164 12.9537H132.314L130.397 6.82199L128.479 12.9537H126.63ZM143.144 5.42549H139.706V7.87699H142.747V9.18649H139.706V11.6255H143.144V12.9535H138.204V4.10324H143.144V5.42549ZM150.977 12.9537L150.276 10.9862H146.409L145.714 12.9537H144.181L147.439 4.10349H149.245L152.503 12.9537H150.977H150.977ZM146.862 9.71424H149.828L148.345 5.53124L146.862 9.71424ZM155.538 11.6257H158.462V12.9537H154.055V4.10349H155.538V11.6257ZM164.922 4.10349V5.42549H162.738V12.9537H161.261V5.42524H159.07V4.10324H164.922L164.922 4.10349ZM172.084 4.10349H173.574V12.9537H172.084V9.17399H167.976V12.9537H166.486V4.10349H167.976V7.86449H172.084V4.10349ZM189.164 12.9537H187.693L187.11 5.96549L184.571 12.9537H183.64L181.114 5.97774L180.525 12.9537H179.048L179.755 4.10349H181.822L184.1 10.3595L186.396 4.10349H188.463L189.164 12.9537ZM197.151 12.9537L196.45 10.9862H192.584L191.888 12.9537H190.355L193.614 4.10349H195.42L198.678 12.9537H197.151H197.151ZM193.036 9.71424H196.003L194.52 5.53124L193.036 9.71424ZM206.225 4.10349H207.708V12.9537H206.045L201.701 6.20124V12.9537H200.23V4.10349H201.874L206.225 10.8127V4.10349ZM216.049 12.9537L215.348 10.9862H211.482L210.786 12.9537H209.253L212.512 4.10349H214.318L217.576 12.9537H216.049ZM211.935 9.71424H214.901L213.418 5.53124L211.935 9.71424ZM222.92 13.0717C220.412 13.0717 218.513 11.3525 218.513 8.54749C218.513 5.72374 220.437 3.97974 222.982 3.97974C224.645 3.97974 226.047 4.71199 226.817 6.05274L225.508 6.75399C224.986 5.76724 224.055 5.30174 222.982 5.30174C221.3 5.30174 220.009 6.44999 220.009 8.51649C220.009 10.5397 221.25 11.7562 223.038 11.7562C224.391 11.7562 225.514 11.03 225.737 9.50949H223.038V8.28699H227.159V12.9542H225.973V11.5145C225.39 12.495 224.359 13.0722 222.92 13.0722V13.0717ZM234.221 5.42549H230.783V7.87699H233.824V9.18649H230.783V11.6255H234.221V12.9535H229.281V4.10324H234.221V5.42549ZM246.007 12.9537H244.536L243.953 5.96549L241.414 12.9537H240.483L237.957 5.97774L237.368 12.9537H235.891L236.598 4.10349H238.665L240.943 10.3595L243.239 4.10349H245.306L246.007 12.9537ZM253.125 5.42549H249.687V7.87699H252.728V9.18649H249.687V11.6255H253.125V12.9535H248.185V4.10324H253.125V5.42549ZM261.144 4.10349H262.627V12.9537H260.964L256.62 6.20124V12.9537H255.149V4.10349H256.794L261.144 10.8127V4.10349ZM270.044 4.10349V5.42549H267.859V12.9537H266.382V5.42524H264.191V4.10324H270.044L270.044 4.10349Z" fill="#6E848F"/>
<path d="M43.3125 22.9651V16.5424H44.389V22.9651H43.3125ZM51.8775 16.5424H52.954V22.9651H51.747L48.5942 18.0649V22.9651H47.5267V16.5424H48.7202L51.8775 21.4114V16.5424ZM60.1135 16.5424H61.2575L58.8885 22.9651H57.731L55.3755 16.5424H56.515L58.3167 21.6724L60.1138 16.5424H60.1135ZM67.264 17.5016H64.7687V19.2806H66.9757V20.2309H64.7687V22.0009H67.264V22.9646H63.6787V16.5419H67.264V17.5011V17.5016ZM72.095 23.0506C70.7347 23.0506 69.7167 22.4021 69.5097 21.2671L70.6177 21.0104C70.7347 21.7491 71.343 22.1544 72.1355 22.1544C72.7615 22.1544 73.329 21.8886 73.32 21.2131C73.311 20.5106 72.5318 20.3079 71.6895 20.0691C70.7165 19.7854 69.7167 19.4611 69.7167 18.2811C69.7167 17.0831 70.6985 16.4526 71.9192 16.4526C73.0452 16.4526 74.1128 16.9256 74.3605 18.0786L73.32 18.3399C73.1758 17.6554 72.6445 17.3534 71.9732 17.3534C71.3742 17.3534 70.8068 17.6101 70.8068 18.2631C70.8068 18.8576 71.4868 19.0424 72.266 19.2586C73.2705 19.5379 74.4325 19.8801 74.4325 21.1684C74.4325 22.4971 73.32 23.0511 72.095 23.0511V23.0506ZM80.6597 16.5424V17.5016H79.0743V22.9651H78.0022V17.5016H76.4123V16.5424H80.6597ZM90.1798 22.9651H89.1122L88.6887 17.8936L86.8468 22.9651H86.1713L84.338 17.9024L83.91 22.9651H82.838L83.3515 16.5424H84.8513L86.5043 21.0824L88.1707 16.5424H89.6705L90.1792 22.9651H90.1798ZM96.6455 17.5016H94.1502V19.2806H96.3573V20.2309H94.1502V22.0009H96.6455V22.9646H93.0603V16.5419H96.6455V17.5011V17.5016ZM103.764 16.5424H104.841V22.9651H103.634L100.481 18.0649V22.9651H99.4138V16.5424H100.607L103.764 21.4114V16.5424ZM111.523 16.5424V17.5016H109.938V22.9651H108.865V17.5016H107.276V16.5424H111.523ZM116.021 23.0506C114.661 23.0506 113.643 22.4021 113.436 21.2671L114.544 21.0104C114.661 21.7491 115.269 22.1544 116.061 22.1544C116.687 22.1544 117.255 21.8886 117.246 21.2131C117.237 20.5106 116.457 20.3079 115.615 20.0691C114.642 19.7854 113.643 19.4611 113.643 18.2811C113.643 17.0831 114.625 16.4526 115.845 16.4526C116.971 16.4526 118.039 16.9256 118.286 18.0786L117.246 18.3399C117.101 17.6554 116.57 17.3534 115.899 17.3534C115.3 17.3534 114.732 17.6101 114.732 18.2631C114.732 18.8576 115.413 19.0424 116.192 19.2586C117.196 19.5379 118.358 19.8801 118.358 21.1684C118.358 22.4971 117.246 23.0511 116.021 23.0511V23.0506ZM124.917 24.3479V16.0469H125.579V24.3479H124.917ZM136.137 16.5424V17.5016H134.552V22.9651H133.48V17.5016H131.89V16.5424H136.137ZM142.788 22.9651L142.279 21.5374H139.473L138.969 22.9651H137.856L140.221 16.5424H141.532L143.896 22.9651H142.788ZM139.802 20.6141H141.955L140.878 17.5784L139.802 20.6141ZM145.597 22.9651L148.101 19.6141L145.687 16.5424H146.997L148.74 18.8394L150.479 16.5424H151.79L149.38 19.6141L151.884 22.9651H150.515L148.74 20.4699L146.966 22.9651H145.597ZM158.173 24.3479V16.0469H158.835V24.3479H158.173ZM169.434 17.5016H166.939V19.2806H169.146V20.2309H166.939V22.0009H169.434V22.9646H165.849V16.5419H169.434V17.5011V17.5016ZM174.265 23.0506C172.905 23.0506 171.887 22.4021 171.68 21.2671L172.788 21.0104C172.905 21.7491 173.513 22.1544 174.305 22.1544C174.931 22.1544 175.499 21.8886 175.49 21.2131C175.481 20.5106 174.702 20.3079 173.859 20.0691C172.886 19.7854 171.887 19.4611 171.887 18.2811C171.887 17.0831 172.869 16.4526 174.089 16.4526C175.215 16.4526 176.283 16.9256 176.531 18.0786L175.49 18.3399C175.346 17.6554 174.814 17.3534 174.143 17.3534C173.544 17.3534 172.977 17.6101 172.977 18.2631C172.977 18.8576 173.657 19.0424 174.436 19.2586C175.44 19.5379 176.602 19.8801 176.602 21.1684C176.602 22.4971 175.49 23.0511 174.265 23.0511V23.0506ZM182.83 16.5424V17.5016H181.244V22.9651H180.172V17.5016H178.582V16.5424H182.83ZM189.48 22.9651L188.971 21.5374H186.165L185.661 22.9651H184.548L186.913 16.5424H188.224L190.589 22.9651H189.48ZM186.494 20.6141H188.647L187.571 17.5784L186.494 20.6141ZM196.559 16.5424V17.5016H194.973V22.9651H193.901V17.5016H192.311V16.5424H196.559ZM202.579 17.5016H200.084V19.2806H202.291V20.2309H200.084V22.0009H202.579V22.9646H198.994V16.5419H202.579V17.5011V17.5016Z" fill="black"/>
</g>
<defs>
<clipPath id="clip0_9726_1141">
<rect width="270" height="27.4722" fill="white"/>
</clipPath>
</defs>
</svg>
