<svg width="108" height="108" viewBox="0 0 108 108" fill="none" xmlns="http://www.w3.org/2000/svg">
<path d="M12 6.75C5.38125 6.75 0 12.1313 0 18.75V72.75C0 79.3687 5.38125 84.75 12 84.75H45L42.9938 90.75H30C26.6812 90.75 24 93.4312 24 96.75C24 100.069 26.6812 102.75 30 102.75H78C81.3188 102.75 84 100.069 84 96.75C84 93.4312 81.3188 90.75 78 90.75H65.0063L63 84.75H96C102.619 84.75 108 79.3687 108 72.75V18.75C108 12.1313 102.619 6.75 96 6.75H12ZM96 18.75V60.75H12V18.75H96Z" fill="#6E848F"/>
</svg>
