<svg width="108" height="108" viewBox="0 0 108 108" fill="none" xmlns="http://www.w3.org/2000/svg">
<rect width="108" height="108" rx="24" fill="#6E848F"/>
<path d="M34.1164 90H19.1893V41.9293H34.1164V90ZM26.6448 35.372C21.8716 35.372 18 31.4183 18 26.645C18 24.3522 18.9108 22.1533 20.532 20.5321C22.1532 18.9108 24.3521 18 26.6448 18C28.9376 18 31.1364 18.9108 32.7576 20.5321C34.3789 22.1533 35.2896 24.3522 35.2896 26.645C35.2896 31.4183 31.4164 35.372 26.6448 35.372ZM89.9839 90H75.0889V66.5995C75.0889 61.0226 74.9764 53.8706 67.328 53.8706C59.5671 53.8706 58.3779 59.9297 58.3779 66.1977V90H43.4668V41.9293H57.7832V48.4866H57.9921C59.985 44.7097 64.853 40.7239 72.1157 40.7239C87.2229 40.7239 90 50.6723 90 63.5941V90H89.9839Z" fill="white"/>
</svg>
