<svg width="108" height="108" viewBox="0 0 108 108" fill="none" xmlns="http://www.w3.org/2000/svg">
<rect width="108" height="108" rx="24" fill="#6E848F"/>
<path d="M54.008 35.5401C43.7923 35.5401 35.5523 43.782 35.5523 54C35.5523 64.218 43.7923 72.4599 54.008 72.4599C64.2238 72.4599 72.4638 64.218 72.4638 54C72.4638 43.782 64.2238 35.5401 54.008 35.5401ZM54.008 66.0013C47.4064 66.0013 42.0094 60.6192 42.0094 54C42.0094 47.3808 47.3903 41.9987 54.008 41.9987C60.6258 41.9987 66.0067 47.3808 66.0067 54C66.0067 60.6192 60.6097 66.0013 54.008 66.0013ZM77.5235 34.785C77.5235 37.1788 75.596 39.0907 73.2187 39.0907C70.8254 39.0907 68.914 37.1628 68.914 34.785C68.914 32.4072 70.8415 30.4793 73.2187 30.4793C75.596 30.4793 77.5235 32.4072 77.5235 34.785ZM89.747 39.155C89.474 33.3873 88.1568 28.2783 83.9324 24.0689C79.724 19.8596 74.6162 18.5422 68.8498 18.253C62.9066 17.9157 45.0934 17.9157 39.1503 18.253C33.3999 18.5262 28.292 19.8436 24.0676 24.0529C19.8432 28.2622 18.5421 33.3712 18.253 39.1389C17.9157 45.0833 17.9157 62.9006 18.253 68.845C18.526 74.6127 19.8432 79.7217 24.0676 83.931C28.292 88.1404 33.3838 89.4578 39.1503 89.747C45.0934 90.0843 62.9066 90.0843 68.8498 89.747C74.6162 89.4738 79.724 88.1564 83.9324 83.931C88.1408 79.7217 89.4579 74.6127 89.747 68.845C90.0843 62.9006 90.0843 45.0994 89.747 39.155ZM82.0692 75.2232C80.8163 78.3722 78.3909 80.7982 75.2266 82.0674C70.4881 83.9471 59.2444 83.5133 54.008 83.5133C48.7717 83.5133 37.5119 83.931 32.7895 82.0674C29.6413 80.8142 27.2158 78.3883 25.9469 75.2232C24.0676 70.4838 24.5013 59.2375 24.5013 54C24.5013 48.7625 24.0837 37.5002 25.9469 32.7767C27.1998 29.6278 29.6252 27.2018 32.7895 25.9326C37.5279 24.0529 48.7717 24.4867 54.008 24.4867C59.2444 24.4867 70.5042 24.0689 75.2266 25.9326C78.3748 27.1858 80.8002 29.6117 82.0692 32.7767C83.9485 37.5162 83.5148 48.7625 83.5148 54C83.5148 59.2375 83.9485 70.4998 82.0692 75.2232Z" fill="white"/>
</svg>
