<svg width="100" height="100" viewBox="0 0 100 100" fill="none" xmlns="http://www.w3.org/2000/svg">
<path d="M69.4444 13C64.2708 13 59.9132 16.5417 58.6806 21.3333H42.5694C50.4167 26.8715 55.5556 36.0035 55.5556 46.3333V76.8889C55.5556 81.1597 53.9583 85.0486 51.3194 88H88.8889C95.0174 88 100 83.0174 100 76.8889V46.3333C100 38.9375 96.7882 32.2708 91.6667 27.7049V24.1111C91.6667 17.9826 86.684 13 80.5556 13H69.4444ZM69.4444 49.1111C67.9167 49.1111 66.6667 47.8611 66.6667 46.3333V29.6667V24.1111C66.6667 22.5833 67.9167 21.3333 69.4444 21.3333H80.5556C82.0833 21.3333 83.3333 22.5833 83.3333 24.1111V29.6667C83.3333 31.1944 82.0833 32.4444 80.5556 32.4444H72.2222V46.3333C72.2222 47.8611 70.9722 49.1111 69.4444 49.1111ZM0 46.3333V76.8889C0 83.0174 4.98264 88 11.1111 88H38.8889C45.0174 88 50 83.0174 50 76.8889V46.3333C50 32.5312 38.8021 21.3333 25 21.3333C11.1979 21.3333 0 32.5312 0 46.3333ZM11.1111 46.3333C11.1111 44.8056 12.3611 43.5556 13.8889 43.5556H36.1111C37.6389 43.5556 38.8889 44.8056 38.8889 46.3333C38.8889 47.8611 37.6389 49.1111 36.1111 49.1111H13.8889C12.3611 49.1111 11.1111 47.8611 11.1111 46.3333Z" fill="#6E848F"/>
</svg>
