<svg width="270" height="86" viewBox="0 0 270 86" fill="none" xmlns="http://www.w3.org/2000/svg">
<g clip-path="url(#clip0_9742_1420)">
<path d="M128.222 -0.000476823C132.919 -0.000476823 137.216 1.94726 140.314 4.99342L136.367 9.03856C134.268 6.94116 131.37 5.64258 128.222 5.64258C121.876 5.64258 116.78 10.7864 116.78 17.1286C116.78 23.4211 121.877 28.6146 128.222 28.6146C131.37 28.6146 134.268 27.2663 136.367 25.2186L140.314 29.2138C137.216 32.3599 132.919 34.2577 128.222 34.2577C118.729 34.2577 111.084 26.5669 111.084 17.1283C111.084 7.63979 118.729 -0.000976562 128.222 -0.000976562L128.222 -0.000476823ZM128.222 13.0337C130.471 13.0337 132.27 14.8815 132.27 17.1288C132.27 19.3762 130.471 21.174 128.222 21.174C125.924 21.174 124.125 19.3762 124.125 17.1288C124.125 14.8815 125.924 13.0337 128.222 13.0337ZM143.072 13.2834H150.567C155.164 13.2834 155.164 6.29174 150.567 6.29174H143.072V0.898555H150.417C162.259 0.898555 162.259 18.727 150.417 18.727H148.269V33.3094H143.072V13.2834Z" fill="#6E848F"/>
<path d="M5.31225 60.1488C2.28725 60.1488 0 58.0842 0 54.7436C0 51.4031 2.28725 49.3457 5.31225 49.3457C7.52575 49.3457 9.34075 50.4666 10.1302 52.3469L8.485 52.9738C7.939 51.7127 6.74375 50.9901 5.3125 50.9901C3.3205 50.9901 1.76375 52.3764 1.76375 54.7436C1.76375 57.1254 3.3205 58.5044 5.3125 58.5044C6.74375 58.5044 7.939 57.7891 8.485 56.5282L10.1302 57.1551C9.34075 59.0357 7.52575 60.1491 5.31225 60.1491V60.1488ZM13.9298 58.4307H17.4048V60.0086H12.1663V49.4929H13.9295V58.4305L13.9298 58.4307ZM25.1518 51.0636H21.0643V53.9763H24.6795V55.5322H21.0643V58.4302H25.1518V60.0082H19.2787V49.4924H25.1518V51.0631V51.0636ZM34.463 60.0086L33.6292 57.6711H29.0327L28.2062 60.0086H26.384L30.2575 49.4929H32.4045L36.278 60.0086H34.463ZM29.5713 56.1594H33.098L31.3347 51.1892L29.5713 56.1594ZM43.752 60.0086L41.022 55.3186H39.8857V60.0086H38.1225V49.4929H41.7747C44.0545 49.4929 45.058 50.8572 45.058 52.5458C45.058 54.0133 44.1875 55.0015 42.793 55.2521L45.8255 60.0084H43.7523L43.752 60.0086ZM39.8857 50.9829V54.0138H41.5163C42.8075 54.0138 43.3607 53.4091 43.3607 52.5093C43.3607 51.617 42.8075 50.9829 41.5163 50.9829H39.8857ZM51.949 49.4929C53.9263 49.4929 55.188 50.9751 55.188 52.8039C55.188 54.6622 53.9263 56.0854 51.949 56.0854H49.529V60.0084H47.7658V49.4926L51.949 49.4929ZM51.6685 54.5812C52.849 54.5812 53.4688 53.8586 53.4688 52.7819C53.4688 51.7422 52.849 50.9826 51.6685 50.9826H49.529V54.5812H51.6685ZM61.8577 60.1488C58.8327 60.1488 56.5455 58.0767 56.5455 54.7436C56.5455 51.4106 58.8327 49.3457 61.8577 49.3457C64.8828 49.3457 67.1625 51.4179 67.1625 54.7436C67.1625 58.0694 64.8752 60.1488 61.8577 60.1488ZM61.8577 58.5117C63.8497 58.5117 65.4065 57.1326 65.4065 54.7434C65.4065 52.3761 63.8497 50.9898 61.8577 50.9898C59.8657 50.9898 58.309 52.3761 58.309 54.7434C58.309 57.1326 59.8657 58.5117 61.8577 58.5117ZM69.4498 60.0086V49.4929H71.213V60.0086H69.4498ZM81.3508 49.4929H83.114V60.0086H81.1367L75.9723 51.9856V60.0086H74.2235V49.4929H76.1787L81.3508 57.4647V49.4929ZM91.9305 49.4929V51.0636H89.3335V60.0086H87.5775V51.0636H84.973V49.4929H91.9305ZM99.5078 60.0086L96.6302 49.4929H98.4672L100.74 57.8038L103.226 49.4929H104.746L107.225 57.8038L109.512 49.4929H111.342L108.465 60.0086H106.266L103.986 52.7229L101.706 60.0086H99.5075H99.5078ZM119.141 51.0636H115.053V53.9763H118.669V55.5322H115.053V58.4302H119.141V60.0082H113.268V49.4924H119.141V51.0631V51.0636ZM128.452 60.0086L127.618 57.6711H123.022L122.196 60.0086H120.373L124.247 49.4929H126.394L130.267 60.0086H128.452ZM123.56 56.1594H127.087L125.324 51.1892L123.561 56.1594H123.56ZM133.875 58.4307H137.35V60.0086H132.111V49.4929H133.875V58.4305L133.875 58.4307ZM145.031 49.4929V51.0636H142.434V60.0086H140.678V51.0636H138.073V49.4929H145.031ZM153.545 49.4929H155.316V60.0086H153.545V55.5177H148.661V60.0086H146.89V49.4929H148.661V53.9615H153.545V49.4929ZM173.85 60.0086H172.101L171.407 51.7055L168.39 60.0086H167.283L164.28 51.7197L163.579 60.0086H161.823L162.664 49.4929H165.121L167.829 56.926L170.559 49.4929H173.016L173.85 60.0086ZM183.345 60.0086L182.511 57.6711H177.915L177.088 60.0086H175.266L179.139 49.4929H181.286L185.16 60.0086H183.345ZM178.453 56.1594H181.98L180.217 51.1892L178.453 56.1594ZM194.132 49.4929H195.895V60.0086H193.918L188.753 51.9856V60.0086H187.005V49.4929H188.96L194.132 57.4647L194.132 49.4929ZM205.811 60.0086L204.977 57.6711H200.381L199.554 60.0086H197.732L201.605 49.4929H203.752L207.626 60.0086H205.811H205.811ZM200.919 56.1594H204.446L202.682 51.1892L200.919 56.1594ZM213.979 60.1488C210.998 60.1488 208.74 58.1061 208.74 54.7731C208.74 51.4179 211.027 49.3457 214.052 49.3457C216.029 49.3457 217.697 50.2158 218.612 51.8087L217.055 52.642C216.436 51.4696 215.329 50.9164 214.053 50.9164C212.053 50.9164 210.518 52.2807 210.518 54.7361C210.518 57.1401 211.994 58.5856 214.119 58.5856C215.728 58.5856 217.063 57.7228 217.329 55.916H214.119V54.4633H219.018V60.0086H217.609V58.2978C216.915 59.4629 215.69 60.1488 213.979 60.1488ZM227.414 51.0636H223.326V53.9763H226.941V55.5322H223.326V58.4302H227.414V60.0082H221.541V49.4924H227.414V51.0631V51.0636ZM241.425 60.0086H239.676L238.983 51.7055L235.965 60.0086H234.859L231.856 51.7197L231.155 60.0086H229.399L230.24 49.4929H232.697L235.404 56.926L238.135 49.4929H240.592L241.425 60.0086ZM249.887 51.0636H245.8V53.9763H249.415V55.5322H245.8V58.4302H249.887V60.0082H244.014V49.4924H249.887V51.0631V51.0636ZM259.42 49.4929H261.184V60.0086H259.206L254.042 51.9856V60.0086H252.293V49.4929H254.248L259.42 57.4647L259.42 49.4929ZM270 49.4929V51.0636H267.403V60.0086H265.647V51.0636H263.043V49.4929H270Z" fill="#6E848F"/>
<path d="M37.0293 83.7805V76.149H38.309V83.7805H37.0293ZM47.2115 76.149H48.4913V83.7805H47.0563L43.3083 77.958V83.7805H42.0393V76.149H43.4583L47.2118 81.9342L47.2115 76.149ZM57.0025 76.149H58.3625L55.546 83.7805H54.17L51.3698 76.149H52.7245L54.8663 82.2446L57.0025 76.149ZM65.503 77.2889H62.5368V79.4028H65.1605V80.532H62.5368V82.6351H65.503V83.7803H61.241V76.1487H65.503V77.2889ZM71.2463 83.8822C69.6293 83.8822 68.419 83.1116 68.1728 81.7631L69.49 81.458C69.6293 82.3358 70.352 82.8173 71.2945 82.8173C72.0388 82.8173 72.7136 82.5014 72.7028 81.6989C72.6921 80.864 71.7658 80.6232 70.7645 80.3396C69.608 80.0025 68.4193 79.6172 68.4193 78.2149C68.4193 76.7914 69.5865 76.0423 71.0375 76.0423C72.376 76.0423 73.645 76.6043 73.9395 77.9743L72.7025 78.2846C72.5313 77.4711 71.8993 77.1125 71.1016 77.1125C70.3896 77.1125 69.7148 77.4176 69.7148 78.1934C69.7148 78.8998 70.5233 79.1192 71.4496 79.3761C72.6436 79.7079 74.025 80.1147 74.025 81.6451C74.025 83.2238 72.7025 83.8822 71.246 83.8822H71.2463ZM81.4281 76.149V77.2889H79.5433V83.7805H78.269V77.2889H76.3788V76.149H81.4281ZM92.7455 83.7805H91.4766L90.9733 77.7547L88.7833 83.7805H87.98L85.8008 77.7651L85.292 83.7805H84.0178L84.6283 76.149H86.4113L88.3763 81.5434L90.3575 76.149H92.1405L92.7455 83.7805ZM100.432 77.2889H97.4658V79.4028H100.09V80.532H97.4658V82.6351H100.432V83.7803H96.17V76.1487H100.432V77.2889ZM108.895 76.149H110.175V83.7805H108.74L104.992 77.958V83.7805H103.723V76.149H105.142L108.896 81.9342V76.149H108.895ZM118.119 76.149V77.2889H116.234V83.7805H114.96V77.2889H113.07V76.149H118.119ZM123.466 83.8822C121.849 83.8822 120.638 83.1116 120.392 81.7631L121.709 81.458C121.849 82.3358 122.571 82.8173 123.514 82.8173C124.258 82.8173 124.933 82.5014 124.922 81.6989C124.911 80.864 123.985 80.6232 122.984 80.3396C121.827 80.0025 120.639 79.6172 120.639 78.2149C120.639 76.7914 121.806 76.0423 123.257 76.0423C124.595 76.0423 125.865 76.6043 126.159 77.9743L124.922 78.2846C124.751 77.4711 124.119 77.1125 123.321 77.1125C122.609 77.1125 121.934 77.4176 121.934 78.1934C121.934 78.8998 122.743 79.1192 123.669 79.3761C124.863 79.7079 126.244 80.1147 126.244 81.6451C126.244 83.2238 124.922 83.8822 123.466 83.8822ZM134.042 85.4237V75.5605H134.829V85.4237H134.042ZM147.381 76.149V77.2889H145.496V83.7805H144.222V77.2889H142.331V76.149H147.381ZM155.287 83.7805L154.682 82.0841H151.346L150.747 83.7805H149.424L152.235 76.149H153.793L156.604 83.7805H155.287ZM151.737 80.987H154.297L153.017 77.3801L151.737 80.987ZM158.626 83.7805L161.603 79.7988L158.733 76.149H160.291L162.364 78.8783L164.43 76.149H165.989L163.124 79.7988L166.101 83.7805H164.473L162.364 80.8158L160.254 83.7805H158.626ZM173.577 85.4237V75.5605H174.364V85.4237H173.577ZM186.964 77.2889H183.998V79.4028H186.621V80.532H183.998V82.6351H186.964V83.7803H182.702V76.1487H186.964V77.2889ZM192.707 83.8822C191.09 83.8822 189.88 83.1116 189.633 81.7631L190.951 81.458C191.09 82.3358 191.813 82.8173 192.755 82.8173C193.499 82.8173 194.174 82.5014 194.163 81.6989C194.153 80.864 193.226 80.6232 192.225 80.3396C191.069 80.0025 189.88 79.6172 189.88 78.2149C189.88 76.7914 191.047 76.0423 192.498 76.0423C193.837 76.0423 195.106 76.6043 195.4 77.9743L194.163 78.2846C193.992 77.4711 193.36 77.1125 192.562 77.1125C191.85 77.1125 191.175 77.4176 191.175 78.1934C191.175 78.8998 191.984 79.1192 192.91 79.3761C194.104 79.7079 195.486 80.1147 195.486 81.6451C195.486 83.2238 194.163 83.8822 192.707 83.8822ZM202.889 76.149V77.2889H201.004V83.7805H199.73V77.2889H197.84V76.149H202.889ZM210.795 83.7805L210.19 82.0841H206.855L206.255 83.7805H204.932L207.743 76.149H209.302L212.113 83.7805H210.795ZM207.245 80.987H209.805L208.525 77.3801L207.245 80.987ZM219.21 76.149V77.2889H217.325V83.7805H216.051V77.2889H214.161V76.149H219.21ZM226.367 77.2889H223.401V79.4028H226.024V80.532H223.401V82.6351H226.367V83.7803H222.105V76.1487H226.367V77.2889Z" fill="#6E848F"/>
</g>
<defs>
<clipPath id="clip0_9742_1420">
<rect width="270" height="85.4237" fill="white"/>
</clipPath>
</defs>
</svg>
