<svg width="100" height="100" viewBox="0 0 100 100" fill="none" xmlns="http://www.w3.org/2000/svg">
<path d="M70.8333 26.8333C70.8333 36.3125 58.1424 53.2049 52.5694 60.1667C51.2326 61.8333 48.75 61.8333 47.4306 60.1667C41.8576 53.2049 29.1667 36.3125 29.1667 26.8333C29.1667 15.3229 38.4896 6 50 6C61.5104 6 70.8333 15.3229 70.8333 26.8333ZM72.2222 40.7917C72.8299 39.5938 73.3854 38.3958 73.8889 37.2153C73.9757 37.0069 74.0625 36.7813 74.1493 36.5729L94.2882 28.5174C97.0312 27.4236 100 29.4375 100 32.3889V79.4028C100 81.1042 98.9583 82.6319 97.3785 83.2743L72.2222 93.3264V40.7917ZM23.8889 30.0104C24.3056 32.4583 25.1389 34.9236 26.1111 37.2153C26.6146 38.3958 27.1701 39.5938 27.7778 40.7917V84.4375L5.71181 93.2743C2.96875 94.3681 0 92.3542 0 89.4028V42.3889C0 40.6875 1.04167 39.1597 2.62153 38.5174L23.9062 30.0104H23.8889ZM56.9097 63.6389C59.3229 60.6181 63.1076 55.7049 66.6667 50.2708V93.5521L33.3333 84.0208V50.2708C36.8924 55.7049 40.6771 60.6181 43.0903 63.6389C46.6493 68.0833 53.3507 68.0833 56.9097 63.6389ZM50 32.3889C51.8418 32.3889 53.6081 31.6572 54.9105 30.3549C56.2128 29.0526 56.9444 27.2862 56.9444 25.4444C56.9444 23.6027 56.2128 21.8363 54.9105 20.534C53.6081 19.2316 51.8418 18.5 50 18.5C48.1582 18.5 46.3919 19.2316 45.0895 20.534C43.7872 21.8363 43.0556 23.6027 43.0556 25.4444C43.0556 27.2862 43.7872 29.0526 45.0895 30.3549C46.3919 31.6572 48.1582 32.3889 50 32.3889Z" fill="#6E848F"/>
</svg>
