<svg width="108" height="108" viewBox="0 0 108 108" fill="none" xmlns="http://www.w3.org/2000/svg">
<path d="M40.9062 13.5V16.875C40.9062 18.7313 42.425 20.25 44.2812 20.25H64.5312C66.3875 20.25 67.9062 18.7313 67.9062 16.875V13.5H74.6562C76.5125 13.5 78.0312 15.0187 78.0312 16.875V91.125C78.0312 92.9813 76.5125 94.5 74.6562 94.5H34.1562C32.3 94.5 30.7812 92.9813 30.7812 91.125V16.875C30.7812 15.0187 32.3 13.5 34.1562 13.5H40.9062ZM34.1562 0C24.8328 0 17.2812 7.55156 17.2812 16.875V91.125C17.2812 100.448 24.8328 108 34.1562 108H74.6562C83.9797 108 91.5312 100.448 91.5312 91.125V16.875C91.5312 7.55156 83.9797 0 74.6562 0H34.1562ZM40.9062 84.375C40.9062 86.2313 42.425 87.75 44.2812 87.75H64.5312C66.3875 87.75 67.9062 86.2313 67.9062 84.375C67.9062 82.5187 66.3875 81 64.5312 81H44.2812C42.425 81 40.9062 82.5187 40.9062 84.375Z" fill="#6E848F"/>
</svg>
