<svg width="108" height="108" viewBox="0 0 108 108" fill="none" xmlns="http://www.w3.org/2000/svg">
<g clip-path="url(#clip0_9726_1099)">
<path d="M13.5 43.8961L54 13.9008L94.5 43.8961V53.8945L61.0664 78.6797C59.0203 80.1984 56.5523 81 54 81C51.4477 81 48.9797 80.1773 46.9336 78.6797L13.5 53.8945V43.8961ZM54 0C51.4477 0 48.9797 0.822656 46.9336 2.32031L5.46328 33.0539C2.025 35.6062 0 39.6141 0 43.8961V94.5C0 101.946 6.05391 108 13.5 108H94.5C101.946 108 108 101.946 108 94.5V43.8961C108 39.6141 105.975 35.5852 102.537 33.0539L61.0664 2.32031C59.0203 0.822656 56.5523 0 54 0Z" fill="#6E848F"/>
</g>
<defs>
<clipPath id="clip0_9726_1099">
<rect width="108" height="108" fill="white"/>
</clipPath>
</defs>
</svg>
